HIERARCHY
ROOT Hips
{
	OFFSET -0.001795 -0.223333 0.028219
	CHANNELS 6 Xposition Yposition Zposition Zrotation Yrotation Xrotation
	JOINT LeftUpLeg
	{
		OFFSET 0.069520 -0.091406 -0.006815
		CHANNELS 3 Zrotation Yrotation Xrotation
		JOINT LeftLeg
		{
			OFFSET 0.034277 -0.375199 -0.004496
			CHANNELS 3 Zrotation Yrotation Xrotation
			JOINT LeftFoot
			{
				OFFSET -0.013596 -0.397961 -0.043693
				CHANNELS 3 Zrotation Yrotation Xrotation
				JOINT LeftToe
				{
					OFFSET 0.026358 -0.055791 0.119288
					CHANNELS 3 Zrotation Yrotation Xrotation
					End Site
					{
						OFFSET 0.000000 0.000000 0.000000
					}
				}
			}
		}
	}
	JOINT RightUpLeg
	{
		OFFSET -0.067670 -0.090522 -0.004320
		CHANNELS 3 Zrotation Yrotation Xrotation
		JOINT RightLeg
		{
			OFFSET -0.038290 -0.382569 -0.008850
			CHANNELS 3 Zrotation Yrotation Xrotation
			JOINT RightFoot
			{
				OFFSET 0.015774 -0.398415 -0.042312
				CHANNELS 3 Zrotation Yrotation Xrotation
				JOINT RightToe
				{
					OFFSET -0.025372 -0.048144 0.123348
					CHANNELS 3 Zrotation Yrotation Xrotation
					End Site
					{
						OFFSET 0.000000 0.000000 0.000000
					}
				}
			}
		}
	}
	JOINT Spine
	{
		OFFSET -0.002533 0.108963 -0.026696
		CHANNELS 3 Zrotation Yrotation Xrotation
		JOINT Spine1
		{
			OFFSET 0.005487 0.135180 0.001092
			CHANNELS 3 Zrotation Yrotation Xrotation
			JOINT Spine2
			{
				OFFSET 0.001457 0.052922 0.025425
				CHANNELS 3 Zrotation Yrotation Xrotation
				JOINT Neck
				{
					OFFSET -0.002778 0.213870 -0.042857
					CHANNELS 3 Zrotation Yrotation Xrotation
					JOINT Head
					{
						OFFSET 0.005152 0.064970 0.051349
						CHANNELS 3 Zrotation Yrotation Xrotation
						End Site
						{
							OFFSET 0.000000 0.000000 0.000000
						}
					}
				}
				JOINT LeftShoulder
				{
					OFFSET 0.078845 0.121749 -0.034090
					CHANNELS 3 Zrotation Yrotation Xrotation
					JOINT LeftArm
					{
						OFFSET 0.090977 0.030469 -0.008868
						CHANNELS 3 Zrotation Yrotation Xrotation
						JOINT LeftForeArm
						{
							OFFSET 0.259612 -0.012772 -0.027456
							CHANNELS 3 Zrotation Yrotation Xrotation
							JOINT LeftHand
							{
								OFFSET 0.249234 0.008986 -0.001171
								CHANNELS 3 Zrotation Yrotation Xrotation
								End Site
								{
									OFFSET 0.000000 0.000000 0.000000
								}
							}
						}
					}
				}
				JOINT RightShoulder
				{
					OFFSET -0.081759 0.118833 -0.038615
					CHANNELS 3 Zrotation Yrotation Xrotation
					JOINT RightArm
					{
						OFFSET -0.096012 0.032551 -0.009143
						CHANNELS 3 Zrotation Yrotation Xrotation
						JOINT RightForeArm
						{
							OFFSET -0.253742 -0.013329 -0.021401
							CHANNELS 3 Zrotation Yrotation Xrotation
							JOINT RightHand
							{
								OFFSET -0.255298 0.007772 -0.005559
								CHANNELS 3 Zrotation Yrotation Xrotation
								End Site
								{
									OFFSET 0.000000 0.000000 0.000000
								}
							}
						}
					}
				}
			}
		}
	}
}
MOTION
Frames: 7
Frame Time: 0.050000
0.000000 0.703823 0.000000 1.368985 5.510312 -77.414410 57.073588 -45.003317 74.492430 14.744576 -41.918161 104.948211 18.052973 -1.526091 -95.901941 0.000000 0.000000 0.000000 -20.735470 -5.439431 3.711374 40.353578 -48.526906 101.723429 -3.232070 -36.254565 -90.984248 0.000000 0.000000 0.000000 8.933314 10.852185 -101.547929 -5.332245 1.739846 36.709038 -14.523416 9.891758 36.490787 -5.248285 -35.720654 71.941445 0.000000 0.000000 0.000000 -31.372829 5.249767 -10.644463 75.151224 65.012740 56.656866 -47.909882 11.446881 -12.804216 0.000000 0.000000 0.000000 11.834563 -4.491918 -0.322390 -47.086304 -54.435215 34.402502 19.532229 -14.063088 -6.785245 0.000000 0.000000 0.000000
-0.002182 0.693349 0.076967 0.196213 10.459278 -78.301688 83.563026 -42.491733 41.044546 96.289365 -53.922234 21.942343 24.459628 -9.541756 -103.934468 0.000000 0.000000 0.000000 -31.857339 -5.801560 13.004519 37.575521 -45.521321 105.245735 -4.126954 -32.917208 -93.387474 0.000000 0.000000 0.000000 7.934348 4.211789 -85.857882 -11.326898 6.282982 30.380927 -3.671560 8.098314 30.325689 15.113326 -12.493317 -2.358952 0.000000 0.000000 0.000000 6.710830 9.127696 -4.683709 23.867223 64.186492 16.508792 -46.251643 44.366699 -31.298588 0.000000 0.000000 0.000000 -12.027447 -9.575212 -5.188668 -28.392642 -40.656092 18.505057 25.271417 -29.987889 -10.729509 0.000000 0.000000 0.000000
-0.004670 0.651668 0.149862 4.236431 10.173333 -78.485138 99.380174 -29.910182 21.302998 119.719182 -7.375662 -21.278666 29.114550 -5.630819 -117.948346 0.000000 0.000000 0.000000 -33.802568 -3.790233 16.836397 28.049778 -38.016460 117.293757 1.890828 -41.922423 -97.524663 0.000000 0.000000 0.000000 8.888222 6.883792 -71.420375 -8.865729 4.102603 10.647269 -6.558504 4.771507 44.748678 8.279114 -1.301354 -28.066706 0.000000 0.000000 0.000000 27.952021 18.224674 -2.273436 -6.525009 54.397528 -4.797990 -50.744227 49.351320 -33.843016 0.000000 0.000000 0.000000 -25.223180 -11.745519 -4.906184 -11.668888 -39.227130 8.407836 18.271426 -20.572624 -4.969410 0.000000 0.000000 0.000000
-0.009475 0.620450 0.206315 8.550177 12.165471 -81.504568 96.849029 -9.968764 7.045029 112.142703 27.199584 -48.040172 12.726514 24.086223 -123.566025 0.000000 0.000000 0.000000 -40.279519 -3.501262 17.629557 22.801201 -29.211860 125.318940 -0.550651 -37.349992 -96.198741 0.000000 0.000000 0.000000 10.899262 8.342984 -59.762787 -7.602768 3.399593 1.013124 -7.918176 7.158405 45.311106 6.550145 0.822473 -33.260681 0.000000 0.000000 0.000000 48.002758 14.660030 4.065493 -14.338402 48.879835 -10.455199 -48.061086 57.392110 -35.332199 0.000000 0.000000 0.000000 -43.565175 -13.017998 -3.118446 -5.954935 -32.536449 4.863028 18.191747 -19.522839 -3.948004 0.000000 0.000000 0.000000
-0.016690 0.582105 0.245500 12.703311 7.799002 -84.198150 64.527049 9.490675 -1.672886 138.570278 8.971791 -31.361425 17.533919 23.071232 -130.869054 0.000000 0.000000 0.000000 -30.659822 -2.856860 11.111068 21.065438 -24.507865 126.661140 0.596738 -38.893446 -92.816405 0.000000 0.000000 0.000000 14.964058 12.264417 -47.871226 -3.344977 1.569528 -5.402678 -14.030576 3.035893 46.152764 4.831939 0.683675 -35.032473 0.000000 0.000000 0.000000 52.885197 14.947361 3.495545 -17.792580 53.343680 -11.038234 -47.998339 45.724361 -25.642880 0.000000 0.000000 0.000000 -48.000251 -12.922438 -0.114339 3.178143 -33.527678 0.669499 20.228597 -5.256949 -1.958911 0.000000 0.000000 0.000000
-0.026482 0.545652 0.266513 15.627875 8.814603 -83.871236 16.296170 3.601314 -18.079259 123.598678 -51.416679 12.015659 50.560409 -18.912061 -136.344944 0.000000 0.000000 0.000000 -29.959245 -4.141035 -0.974736 22.725004 -22.053275 121.296534 -1.825697 -34.969309 -85.573735 0.000000 0.000000 0.000000 14.888279 11.721415 -44.562847 -3.783844 1.722976 -7.038008 -13.336723 0.376356 47.480310 1.839766 1.175172 -33.277483 0.000000 0.000000 0.000000 53.596868 16.100947 2.376547 -27.636586 57.910303 -15.980386 -67.315315 36.857930 -28.897473 0.000000 0.000000 0.000000 -49.336583 -12.779532 1.388876 17.097997 -31.246147 -5.227404 25.601003 7.901812 0.508058 0.000000 0.000000 0.000000
-0.036227 0.487235 0.272621 20.120179 6.519842 -81.605269 5.042550 -0.402204 -22.765956 56.744373 -50.390952 72.034782 43.282617 -77.761205 -90.627423 0.000000 0.000000 0.000000 -21.629042 -3.181452 -14.024096 27.170332 -22.911051 111.225080 -2.127411 -35.675721 -75.443999 0.000000 0.000000 0.000000 20.431753 15.493283 -41.949998 -5.095158 2.233961 -6.168159 -13.293928 2.036340 47.026425 2.359919 0.692740 -31.417561 0.000000 0.000000 0.000000 48.473501 12.308762 1.151710 -67.868003 58.561952 -44.726949 -78.049964 21.687382 -20.682854 0.000000 0.000000 0.000000 -48.975180 -11.957769 1.111336 31.756843 -35.615923 -11.899973 44.326565 29.356832 10.361915 0.000000 0.000000 0.000000
